<?xml version="1.0" encoding="UTF-8"?>
<svg id="_图层_1" data-name="图层 1" xmlns="http://www.w3.org/2000/svg" viewBox="0 0 52.64 34.75">
  <defs>
    <style>
      .cls-1 {
        fill: #231815;
        stroke-width: 0px;
      }
    </style>
  </defs>
  <g>
    <path class="cls-1" d="m39.13,0c3.58.02,7.15,1.33,9.59,3.94,5.14,4.88,5.27,14.33.08,19.19-.36.36-.88.72-1.47,1.08-2.68,1.6-6.11-.18-6.31-3.29h0c-.09-1.31.45-2.59,1.45-3.44,1.19-1.01,2.61-2.53,2.61-4.02,0-1.63-.56-2.97-1.69-4.03-1.04-1.04-2.63-1.58-4.22-1.59"/>
    <path class="cls-1" d="m26.53,7.84c-1.6-.01-3.2.5-4.25,1.56-2.15,1.85-2.18,5.95-.2,7.81.45.45,1,.82,1.64,1.09,1.49.65,2.47,2.09,2.43,3.71h0c-.07,2.73-2.88,4.6-5.39,3.52-1.7-.73-3.15-1.71-4.33-2.93-4.69-4.63-4.49-14.17.46-18.75C19.35,1.27,22.93-.02,26.5,0"/>
    <rect class="cls-1" x="28.54" y="-4.52" width="7.84" height="16.88" rx="1.7" ry="1.7" transform="translate(36.38 -28.54) rotate(90)"/>
  </g>
  <g>
    <path class="cls-1" d="m13.51,34.75c-3.58-.02-7.15-1.33-9.59-3.94-5.14-4.88-5.27-14.33-.08-19.19.36-.36.88-.72,1.47-1.08,2.68-1.6,6.11.18,6.31,3.29h0c.09,1.31-.45,2.59-1.45,3.44-1.19,1.01-2.61,2.53-2.61,4.02,0,1.63.56,2.97,1.69,4.03,1.04,1.04,2.63,1.58,4.22,1.59"/>
    <path class="cls-1" d="m26.11,26.9c1.6.01,3.2-.5,4.25-1.56,2.15-1.85,2.18-5.95.2-7.81-.45-.45-1-.82-1.64-1.09-1.49-.65-2.47-2.09-2.43-3.71h0c.07-2.73,2.88-4.6,5.39-3.52,1.7.73,3.15,1.71,4.33,2.93,4.69,4.63,4.49,14.17-.46,18.75-2.44,2.6-6.02,3.88-9.6,3.87"/>
    <rect class="cls-1" x="16.26" y="22.39" width="7.84" height="16.88" rx="1.7" ry="1.7" transform="translate(-10.65 51) rotate(-90)"/>
  </g>
</svg>